<svg width="60" height="61" viewBox="0 0 60 61" fill="none" xmlns="http://www.w3.org/2000/svg">
<path d="M7.5 30.1182H30V33.8682H7.5V30.1182ZM3.75 20.7432H22.5V24.4932H3.75V20.7432Z" fill="#B1A489"/>
<path d="M56.0981 31.2544L50.4731 18.1294C50.3288 17.7921 50.0885 17.5045 49.7822 17.3025C49.4759 17.1005 49.117 16.993 48.75 16.9932H43.125V13.2432C43.125 12.7459 42.9275 12.269 42.5758 11.9173C42.2242 11.5657 41.7473 11.3682 41.25 11.3682H11.25V15.1182H39.375V38.6607C38.5206 39.1568 37.7729 39.8171 37.175 40.6036C36.5771 41.3901 36.1408 42.2872 35.8913 43.2432H24.1088C23.6524 41.4757 22.5671 39.9353 21.0563 38.9108C19.5454 37.8863 17.7128 37.4479 15.9019 37.6779C14.091 37.908 12.4261 38.7905 11.2194 40.1602C10.0127 41.5299 9.34692 43.2927 9.34692 45.1182C9.34692 46.9436 10.0127 48.7064 11.2194 50.0761C12.4261 51.4458 14.091 52.3284 15.9019 52.5584C17.7128 52.7884 19.5454 52.3501 21.0563 51.3255C22.5671 50.301 23.6524 48.7607 24.1088 46.9932H35.8913C36.2991 48.6024 37.2319 50.0296 38.5421 51.0491C39.8522 52.0686 41.4649 52.6222 43.125 52.6222C44.7851 52.6222 46.3978 52.0686 47.7079 51.0491C49.0181 50.0296 49.9509 48.6024 50.3588 46.9932H54.375C54.8723 46.9932 55.3492 46.7956 55.7008 46.444C56.0525 46.0924 56.25 45.6154 56.25 45.1182V31.9932C56.2501 31.7392 56.1984 31.4878 56.0981 31.2544ZM16.875 48.8682C16.1333 48.8682 15.4083 48.6482 14.7916 48.2362C14.1749 47.8241 13.6943 47.2385 13.4105 46.5532C13.1266 45.868 13.0524 45.114 13.1971 44.3866C13.3418 43.6591 13.6989 42.991 14.2234 42.4665C14.7478 41.9421 15.416 41.5849 16.1434 41.4402C16.8709 41.2955 17.6249 41.3698 18.3101 41.6536C18.9953 41.9374 19.581 42.4181 19.993 43.0348C20.4051 43.6515 20.625 44.3765 20.625 45.1182C20.624 46.1124 20.2286 47.0657 19.5256 47.7687C18.8225 48.4718 17.8693 48.8672 16.875 48.8682ZM43.125 20.7432H47.5125L51.5325 30.1182H43.125V20.7432ZM43.125 48.8682C42.3833 48.8682 41.6583 48.6482 41.0416 48.2362C40.4249 47.8241 39.9443 47.2385 39.6605 46.5532C39.3766 45.868 39.3024 45.114 39.4471 44.3866C39.5918 43.6591 39.9489 42.991 40.4734 42.4665C40.9978 41.9421 41.666 41.5849 42.3934 41.4402C43.1209 41.2955 43.8749 41.3698 44.5601 41.6536C45.2453 41.9374 45.831 42.4181 46.243 43.0348C46.6551 43.6515 46.875 44.3765 46.875 45.1182C46.874 46.1124 46.4786 47.0657 45.7756 47.7687C45.0725 48.4718 44.1193 48.8672 43.125 48.8682ZM52.5 43.2432H50.3588C49.9457 41.6371 49.0114 40.2135 47.7023 39.1955C46.3932 38.1776 44.7833 37.6228 43.125 37.6182V33.8682H52.5V43.2432Z" fill="#B1A489"/>
</svg>
