<svg width="60" height="61" viewBox="0 0 60 61" fill="none" xmlns="http://www.w3.org/2000/svg">
<path d="M25 52.6182H12.5C9.725 52.6182 7.5 50.3932 7.5 47.6182V12.6182C7.5 9.84316 9.725 7.61816 12.5 7.61816H47.5C50.275 7.61816 52.5 9.84316 52.5 12.6182V25.9432C51.75 25.6432 50.925 25.4682 50.1 25.4682C49.175 25.4682 48.3 25.6682 47.5 26.0432V12.6182H12.5V47.6182H25.275L25 47.8932V52.6182ZM17.5 22.6182H42.5V17.6182H17.5V22.6182ZM17.5 42.6182H30.275L35 37.9182V37.6182H17.5V42.6182ZM17.5 32.6182H40.3L42.5 30.4182V27.6182H17.5V32.6182ZM54.25 34.0682L51.05 30.8682C50.793 30.6162 50.4474 30.4751 50.0875 30.4751C49.7276 30.4751 49.382 30.6162 49.125 30.8682L46.625 33.3682L51.75 38.4932L54.25 35.9932C54.5019 35.7361 54.6431 35.3906 54.6431 35.0307C54.6431 34.6708 54.5019 34.3252 54.25 34.0682ZM30 55.1182H35.15L50.275 39.9432L45.15 34.8182L30 49.9682V55.1182Z" fill="#B1A489"/>
</svg>
