<svg width="60" height="61" viewBox="0 0 60 61" fill="none" xmlns="http://www.w3.org/2000/svg">
<path d="M52.75 31.3682L56.25 34.8932L39.925 51.3682L31.25 42.6182L34.75 39.0932L39.925 44.2932L52.75 31.3682ZM27.5 10.1182C30.1522 10.1182 32.6957 11.1717 34.5711 13.0471C36.4464 14.9225 37.5 17.466 37.5 20.1182C37.5 22.7703 36.4464 25.3139 34.5711 27.1892C32.6957 29.0646 30.1522 30.1182 27.5 30.1182C24.8478 30.1182 22.3043 29.0646 20.4289 27.1892C18.5536 25.3139 17.5 22.7703 17.5 20.1182C17.5 17.466 18.5536 14.9225 20.4289 13.0471C22.3043 11.1717 24.8478 10.1182 27.5 10.1182ZM27.5 15.1182C26.1739 15.1182 24.9021 15.6449 23.9645 16.5826C23.0268 17.5203 22.5 18.7921 22.5 20.1182C22.5 21.4442 23.0268 22.716 23.9645 23.6537C24.9021 24.5914 26.1739 25.1182 27.5 25.1182C28.8261 25.1182 30.0979 24.5914 31.0355 23.6537C31.9732 22.716 32.5 21.4442 32.5 20.1182C32.5 18.7921 31.9732 17.5203 31.0355 16.5826C30.0979 15.6449 28.8261 15.1182 27.5 15.1182ZM27.5 32.6182C29.2 32.6182 31.25 32.8432 33.525 33.2682L29.35 37.4432L27.5 37.3682C20.075 37.3682 12.25 41.0182 12.25 42.6182V45.3682H27.75L32.5 50.1182H7.5V42.6182C7.5 35.9682 20.825 32.6182 27.5 32.6182Z" fill="#B1A489"/>
</svg>
