<svg width="60" height="61" viewBox="0 0 60 61" fill="none" xmlns="http://www.w3.org/2000/svg">
<path d="M50 7.61816H10C8.61929 7.61816 7.5 8.73745 7.5 10.1182V15.1182C7.5 16.4989 8.61929 17.6182 10 17.6182H50C51.3807 17.6182 52.5 16.4989 52.5 15.1182V10.1182C52.5 8.73745 51.3807 7.61816 50 7.61816Z" stroke="#B1A489" stroke-width="5" stroke-linecap="round" stroke-linejoin="round"/>
<path d="M30 45.1182C35.5228 45.1182 40 40.641 40 35.1182C40 29.5953 35.5228 25.1182 30 25.1182C24.4772 25.1182 20 29.5953 20 35.1182C20 40.641 24.4772 45.1182 30 45.1182Z" stroke="#B1A489" stroke-width="5" stroke-linecap="round" stroke-linejoin="round"/>
<path d="M47.5 17.6182V35.1182C47.5 39.7595 45.6563 44.2106 42.3744 47.4925C39.0925 50.7744 34.6413 52.6182 30 52.6182C25.3587 52.6182 20.9075 50.7744 17.6256 47.4925C14.3437 44.2106 12.5 39.7595 12.5 35.1182V17.6182M30 35.1182H30.025" stroke="#B1A489" stroke-width="5" stroke-linecap="round" stroke-linejoin="round"/>
</svg>
