<svg width="60" height="61" viewBox="0 0 60 61" fill="none" xmlns="http://www.w3.org/2000/svg">
<path d="M27.375 31.8682L23.9375 28.3682C23.4375 27.8682 22.8442 27.6182 22.1575 27.6182C21.4692 27.6182 20.875 27.8682 20.375 28.3682C19.875 28.8682 19.615 29.4615 19.595 30.1482C19.5733 30.8365 19.8125 31.4307 20.3125 31.9307L25.625 37.2432C26.125 37.7432 26.7083 37.9932 27.375 37.9932C28.0417 37.9932 28.625 37.7432 29.125 37.2432L39.75 26.6182C40.25 26.1182 40.5 25.524 40.5 24.8357C40.5 24.149 40.25 23.5557 39.75 23.0557C39.25 22.5557 38.6567 22.3057 37.97 22.3057C37.2817 22.3057 36.6875 22.5557 36.1875 23.0557L27.375 31.8682ZM30 54.9307H29.375C29.1667 54.9307 28.9792 54.889 28.8125 54.8057C23.3542 53.0973 18.8542 49.7115 15.3125 44.6482C11.7708 39.5865 10 33.9932 10 27.8682V16.0557C10 15.014 10.3025 14.0765 10.9075 13.2432C11.5108 12.4098 12.2917 11.8057 13.25 11.4307L28.25 5.80566C28.8333 5.59733 29.4167 5.49316 30 5.49316C30.5833 5.49316 31.1667 5.59733 31.75 5.80566L46.75 11.4307C47.7083 11.8057 48.49 12.4098 49.095 13.2432C49.6983 14.0765 50 15.014 50 16.0557V27.8682C50 33.9932 48.2292 39.5865 44.6875 44.6482C41.1458 49.7115 36.6458 53.0973 31.1875 54.8057C30.9792 54.889 30.5833 54.9307 30 54.9307ZM30 49.8682C34.3333 48.4932 37.9167 45.7432 40.75 41.6182C43.5833 37.4932 45 32.9098 45 27.8682V16.0557L30 10.4307L15 16.0557V27.8682C15 32.9098 16.4167 37.4932 19.25 41.6182C22.0833 45.7432 25.6667 48.4932 30 49.8682Z" fill="#B1A489"/>
</svg>
