<svg width="22" height="22" viewBox="0 0 22 22" fill="none" xmlns="http://www.w3.org/2000/svg">
<path d="M14.3166 10.201C15.7243 9.17434 16.641 7.51283 16.641 5.64102C16.641 2.53056 14.1104 0 11 0C7.88953 0 5.35897 2.53056 5.35897 5.64102C5.35897 7.51283 6.27562 9.17434 7.68336 10.201C4.18399 11.5401 1.69232 14.933 1.69232 18.8974C1.69232 20.6082 3.08412 22 4.79488 22H17.2051C18.9159 22 20.3077 20.6082 20.3077 18.8974C20.3077 14.933 17.816 11.5401 14.3166 10.201ZM7.05129 5.64102C7.05129 3.46371 8.82268 1.69232 11 1.69232C13.1773 1.69232 14.9487 3.46371 14.9487 5.64102C14.9487 7.81834 13.1773 9.58977 11 9.58977C8.82268 9.58977 7.05129 7.81834 7.05129 5.64102ZM17.2051 20.3077H4.79488C4.01727 20.3077 3.38464 19.675 3.38464 18.8974C3.38464 14.6982 6.80083 11.282 11 11.282C15.1992 11.282 18.6154 14.6982 18.6154 18.8974C18.6154 19.675 17.9827 20.3077 17.2051 20.3077Z" fill="#735C2D"/>
</svg>
