<svg width="24" height="24" viewBox="0 0 24 24" fill="none" xmlns="http://www.w3.org/2000/svg">
<path fill-rule="evenodd" clip-rule="evenodd" d="M5.25 4C5.25 2.48122 6.48122 1.25 8 1.25H16C17.5188 1.25 18.75 2.48122 18.75 4V20C18.75 21.5188 17.5188 22.75 16 22.75H8C6.48122 22.75 5.25 21.5188 5.25 20V4ZM8 2.75C7.30964 2.75 6.75 3.30964 6.75 4V20C6.75 20.6904 7.30964 21.25 8 21.25H16C16.6904 21.25 17.25 20.6904 17.25 20V4C17.25 3.30964 16.6904 2.75 16 2.75H8Z" fill="#735C2D"/>
<path fill-rule="evenodd" clip-rule="evenodd" d="M9 1.25C8.58579 1.25 8.25 1.58579 8.25 2V3C8.25 3.9665 9.0335 4.75 10 4.75H14C14.9665 4.75 15.75 3.9665 15.75 3V2C15.75 1.58579 15.4142 1.25 15 1.25H9Z" fill="#735C2D"/>
</svg>
